<svg width="42" height="48" viewBox="0 0 42 48" fill="none" xmlns="http://www.w3.org/2000/svg">
    <path d="M22.747 14.78c-.39-.488-1.045-.78-1.747-.78-.702 0-1.358.292-1.747.78l-8.4 10.5c-.43.536-.47 1.227-.104 1.796.365.569 1.076.924 1.851.924h16.8c.774 0 1.486-.355 1.852-.924.365-.57.325-1.26-.105-1.797l-8.4-10.5zM21.915 33.742c-.204-.255-.547-.408-.915-.408s-.711.153-.915.408l-4.4 5.5a.789.789 0 0 0-.055.94c.192.299.564.485.97.485h8.8c.406 0 .778-.186.97-.484a.789.789 0 0 0-.055-.941l-4.4-5.5z" fill="#fff"/>
</svg>
