<svg width="22" height="22" viewBox="0 0 22 22" fill="none" xmlns="http://www.w3.org/2000/svg">
    <path fill-rule="evenodd" clip-rule="evenodd" d="M3.667 10.004a2.455 2.455 0 0 1-1.658-3.286l.801-2.003a4.583 4.583 0 0 1 4.256-2.881h7.868a4.583 4.583 0 0 1 4.256 2.88l.801 2.004a2.455 2.455 0 0 1-1.658 3.286v8.33h.917a.917.917 0 1 1 0 1.833H2.75a.917.917 0 1 1 0-1.834h.917v-8.329zm2.52-6.193a2.75 2.75 0 0 0-1.675 1.585l-.801 2.003a.62.62 0 0 0 .576.851h.461A.751.751 0 0 0 5.5 7.5c0-.17.017-.34.05-.507l.636-3.18zm2.98 14.523h3.666V16.5a1.833 1.833 0 0 0-3.666 0v1.834zm5.5 0V16.5a3.667 3.667 0 1 0-7.334 0v1.834H5.5V9.973a2.58 2.58 0 0 0 .917-.5c.45.38 1.032.61 1.668.61h1.082a2.74 2.74 0 0 0 1.833-.7 2.74 2.74 0 0 0 1.833.7h1.082c.636 0 1.218-.23 1.668-.61.265.224.576.396.917.5v8.36h-1.833zM17.25 8.25h.462a.62.62 0 0 0 .576-.85l-.802-2.004a2.75 2.75 0 0 0-1.673-1.585l.636 3.18c.033.168.05.337.05.508 0 .415.336.751.751.751zM8.085 3.667 7.348 7.35a.751.751 0 0 0 .737.9h1.082c.506 0 .916-.411.916-.917V3.667H8.085zm5.83 0 .737 3.684a.752.752 0 0 1-.737.9h-1.082a.917.917 0 0 1-.916-.917V3.667h1.998z" fill="#3D56F0"/>
</svg>
