<svg width="32" height="32" viewBox="0 0 32 32" fill="none" xmlns="http://www.w3.org/2000/svg">
<circle cx="16" cy="16" r="16" fill="#5468FF"/>
<path d="M22.0061 8.32776C20.9903 7.31197 19.3434 7.31197 18.3276 8.32776L10.7374 15.918C10.417 16.2384 10.1897 16.6398 10.0798 17.0794L9.3584 19.9649C9.2874 20.2489 9.37061 20.5493 9.57759 20.7563C9.78458 20.9633 10.085 21.0465 10.369 20.9755L13.2544 20.2541C13.694 20.1442 14.0955 19.9169 14.4159 19.5965L22.0061 12.0063C23.0219 10.9905 23.0219 9.34356 22.0061 8.32776Z" fill="white"/>
<path d="M9.3335 23.4998C9.3335 23.0396 9.70659 22.6665 10.1668 22.6665L21.8335 22.6665C22.2937 22.6665 22.6668 23.0396 22.6668 23.4998C22.6668 23.9601 22.2937 24.3332 21.8335 24.3332L10.1668 24.3332C9.70659 24.3332 9.3335 23.9601 9.3335 23.4998Z" fill="white"/>
</svg>
