<svg width="22" height="22" viewBox="0 0 22 22" fill="none" xmlns="http://www.w3.org/2000/svg">
    <path d="M13.47 4.733a34.85 34.85 0 0 1 1.69-.284c.41-.052.65-.052.83-.025a2.75 2.75 0 0 1 2.196 1.833c.06.172.102.408.124.821.023.417.023.951.023 1.713v4.418c0 .762 0 1.296-.023 1.713-.022.413-.065.649-.124.821a2.75 2.75 0 0 1-2.196 1.833c-.18.027-.42.027-.83-.025-.414-.052-.94-.147-1.69-.284l-1.493-.271a2.306 2.306 0 0 1-1.894-2.269h-.002a.917.917 0 1 0-1.83 0H8.25c0 2 1.43 3.715 3.399 4.073l1.52.276c.717.13 1.292.235 1.762.294.48.06.91.082 1.33.02a4.583 4.583 0 0 0 3.66-3.056c.138-.402.193-.83.22-1.312.026-.473.026-1.057.026-1.786V8.764c0-.729 0-1.313-.026-1.786-.027-.482-.082-.91-.22-1.312a4.583 4.583 0 0 0-3.66-3.055c-.42-.063-.85-.041-1.33.019-.47.06-1.045.164-1.762.294l-1.342.244A4.357 4.357 0 0 0 8.25 7.454h.008a.917.917 0 0 0 1.817 0h.008c0-1.22.872-2.264 2.072-2.482l1.315-.24z" fill="#3D56F0"/>
    <path d="M6.148 8.898a.917.917 0 0 0-1.296-1.296l-2.75 2.75a.917.917 0 0 0 0 1.296l2.75 2.75a.917.917 0 1 0 1.296-1.296l-1.185-1.185H11a.917.917 0 1 0 0-1.834H4.963l1.185-1.185z" fill="#3D56F0"/>
</svg>
